<?xml version="1.0" encoding="utf-8"?>
<!-- Generator: Adobe Illustrator 26.0.3, SVG Export Plug-In . SVG Version: 6.00 Build 0)  -->
<svg version="1.0" id="Layer_1" xmlns="http://www.w3.org/2000/svg" xmlns:xlink="http://www.w3.org/1999/xlink" x="0px" y="0px"
	 viewBox="0 0 810 572" style="enable-background:new 0 0 810 572;" xml:space="preserve">
<g>
	<g>
		<path d="M730.1,251.6c1.4,0.1,2.4,1.5,3.6,2.2c0-0.7-0.1-2.2-0.1-3c0.7,0.5,2,1.5,2.7,2c-0.2,0.7-0.7,2.1-0.9,2.8
			c1.5-1.5,2.8-3.1,4.2-4.7c0.6,0.7,1.7,2.2,2.3,2.9l3-3.1l-1.8,4.8c1.1-1.3,1.8-2.7,2.1-4.3c1.9,1.3,3.9,2.6,6.1,3.6
			c-0.7-1.3-1.4-2.5-2.1-3.7c1.3,0.5,3.8,1.4,5.1,1.8c1.1-2.3,2.1-2.2,3.2,0.3c0.4-0.5,1.2-1.4,1.7-1.9c0.5,0.5,1.5,1.5,2,2
			c2.7-2.7,3.5,1.6,5.1,2.9l-2.6,0.1l0.2,1.6l2-0.4v0.7c-0.6,0.3-1.9,0.9-2.5,1.3c0.7,0.4,2.2,1.1,2.9,1.4c-1.8,1.4-3.2,4.1-6,3.1
			c1.2-0.9,2.4-1.8,3.6-2.8l-4,1.2l-1.1-2.2c0.1,1.5,0.2,3,0.3,4.5c-1.7-1.2-3.3-2.5-4.8-3.9c-0.4,0.7-1.3,2.2-1.8,2.9
			c-0.3-0.7-0.9-2-1.2-2.6c-0.3,0.7-0.9,2.1-1.2,2.8c-2.2-0.4-4.5-2.5-6.4,0.2l2-3.5c-2,0.4-7,7.3-4.3,1.1l-3.1-0.1
			c-0.4,1.8-0.9,3.7-2,5.2l0.9-4.5c-0.8,0.3-2.3,0.8-3.1,1.1c1,2.2,2.4,4,3.8,6c-0.6,0.3-1.8,0.8-2.4,1.1c1.3,2.9,0,6.1-0.5,9
			l0.9-0.2c0.1-0.9,0.1-2.6,0.2-3.4c1,1.4,2,2.7,3,4.1c0.1-0.8,0.3-2.5,0.5-3.4c1.2,1.2,2.4,2.4,3.7,3.5c1.4,0,2.2-1.6,3.4-2.2
			c0.8,0.7,1.6,1.4,2.5,2.1c0.4-0.2,1.1-0.7,1.4-0.9l-1.5-2.6l2.2,1.5c0.9-0.4,2.7-1.1,3.6-1.5c-0.4,0.6-1.3,1.7-1.8,2.2l-0.2,0.4
			c3.7-0.1,7.5-0.2,11.2-1.2c-0.3,0.5-1,1.4-1.3,1.8c0,0.8,0,2.4,0,3.1c0.7,0.9,2.1,2.5,2.8,3.4l-3.7-2l2.3,3.4l-2.7-1.5
			c-0.6,1-1.7,2.9-2.3,3.8l-0.1-3.2c-2.2,0.8-4.6,1.2-7,1.6l1.3-2.6c-1.9,1.4-4.2,1.6-6.5,0.9c-0.4,0.1-1.2,0.3-1.5,0.4
			c-2.3,2.4-7.5,2.3-7.7-1.8c-0.5,2.1-0.9,4.1-1.4,6.2c-0.7-1.3-1.4-2.7-2.1-4c0,3,2,5.2,3.5,7.6c-0.8,1.4-1.6,2.8-2.2,4.2
			c3.6,1.2,1,3.8,0.1,6c0.5,0,1.4,0,1.9,0l0.3-2.9c0.4,0.7,1.3,2.1,1.8,2.9h0.7l0.4-2.4c0.5,0.8,1.6,2.3,2.1,3.1c0-0.9,0-2.5,0-3.4
			c2.1,0.9,4.3,1.7,6.4,2.6c0.5-0.6,1.6-1.8,2.1-2.4c1.5,0.5,2.9,0.9,4.4,1.4c0.1-0.3,0.3-0.8,0.5-1.1c1.3,0,4,0,5.3,0.1
			c-1.9,0.7-3.9,1.1-5.6,2.2c3.6-1.3,7.5-0.8,11.2,0l0.8,3.5l-2.6-2.4c-0.2,0.6-0.7,1.9-0.9,2.5c0.5-0.2,1.6-0.6,2.2-0.8l0.9,3.4
			c-4.4-2.9-2.9,2.1-3,4.4c-1.6-1.3-3.2-2.6-4.7-4c0.6,1.1,1.7,3.2,2.3,4.3c-1-0.7-3.1-2.1-4.1-2.8c-2.2,0.8-5.9-1.8-5.5,2.5
			c-1.3-0.9-2.6-1.7-3.8-2.6c-0.6,0.6-1.7,1.8-2.2,2.5c-0.2-0.7-0.6-2.2-0.8-2.9l-1.4,0.1l1.8,3c-1-0.5-3.1-1.5-4.1-2
			c-0.8-0.3-2.4-1-3.2-1.3c0.7,0.8,2.2,2.3,3,3.1c-2.4-0.1-4.7-0.4-6.3-2.2l-0.9,1.2c-1.4-1.2-3.3-1.9-4.3,0.3
			c-0.3-0.6-0.7-1.7-1-2.3c-0.6,0.8-1.7,2.4-2.3,3.2c-2.5-1.6-1.1-3.8-0.2-5.9c0-2.4-2-4.2-3.3-6c0.5-0.2,1.5-0.5,2-0.7
			c-0.3-2.5,0.8-5.4-1.6-7.1c0.9-1.1,2.2-1.8,3.3-2.8c-0.5-1.1-0.8-2.3-0.8-3.5c0.3-1.6,0.4-3.3,0.6-5c-0.3,0.4-0.8,1.3-1.1,1.8
			c-2.7,0.3-1.3-5.6,0.9-5.7c-1.2-2-2.4-4.1-3.4-6.2l3.2,1.2c0.1-1.6,0.2-3.1,0.4-4.7c-0.5,0.5-1.4,1.4-1.8,1.9
			c-0.3-1.9-0.7-3.8-1.1-5.7c1.1-0.9,2.3-1.7,3.6-2.4c-0.9-0.1-2.7-0.2-3.6-0.3c1.1-1,2.2-2,3.4-3c-1-0.2-3-0.6-4-0.8
			c1.8-1.1,2.8-2.7,3-4.8l-3.3,1.2c0.5-0.8,1.4-2.3,1.9-3l3,0.8c-0.9-0.9-2.7-2.7-3.6-3.6c0.7,0.1,2,0.5,2.7,0.6l0.7,2.2
			C728.2,253.7,729,252.6,730.1,251.6z"/>
	</g>
	<g>
		<path d="M516.6,252.1c3.4-0.8,5.4,4.5,8.5,1c2.8-0.6,4.9,2.1,7.5,2.5l-2.4-3.7c1.9,1.3,5.9,0.6,5.8,4c0.8-0.9,1.6-1.7,2.4-2.6
			c1.5,1.3,2.8,2.7,2.7,4.9c1-0.4,2-0.9,3-1.4c-1.2,3.1,1.3,4.6,2.9,6.7c0.6-0.2,1.7-0.5,2.3-0.7c-0.6,1.3-1.3,2.6-1.9,3.9
			c0.6,0.1,1.8,0.2,2.4,0.3c-0.3,1.3-0.9,3.9-1.2,5.3c-0.6-0.1-1.7-0.4-2.3-0.5c1.2,0.6,2.5,1.1,3.7,1.7c-1.2,1.2-2.4,2.3-3.7,3.5
			l1.9,2.9l-3.5-2c0.5,1.2,1.6,3.4,2.1,4.6l-2.7-2l-0.9,1.1c-1.8-1.1-1.9,1.6-3.4,1.9c-1,0.1-2.9,0.2-3.8,0.3
			c2.1,1.7,4.3,1.4,6.2-0.3c0.8,2.3,2.2,4.3,4.2,6l-3.2-1.2c2.1,2.3,3,5.2,3.8,8.1l-1.6,0.3c0.4,0.5,1.2,1.6,1.5,2.1
			c-0.4,0.5-1.3,1.4-1.8,1.9c0.9,0.1,2.8,0.4,3.8,0.6l-1.7,2.5c0.7,0,2.3,0.1,3,0.2c-0.5,0.5-1.6,1.4-2.2,1.9l2.2,1.1
			c-0.7,0.5-2.1,1.5-2.8,2.1l2.2,0.1l0.8-2c0.2,0.9,0.7,2.6,1,3.5c1-2.1,2.7-3.9,3.4-6.2c-1,0.6-2,1.2-3,1.7
			c-0.7-2.3,1.6-3.5,2.8-5.1c-0.2-0.7-0.5-2.3-0.7-3l1.8-1.3c0,1.6-0.1,3.3-0.1,4.9c0.5-1.9,1.1-3.8,1.6-5.8l-2.1,0.4l-0.1-1.1
			c2.8,1.9,4.7-1.7,2.9-3.7l1.9-0.9c-0.5-0.4-1.4-1.2-1.8-1.6c1-1.2,1.5-2.5,1.4-4c1.4-0.6,2.7-1.2,4-1.9c0.5-1.4,0.9-2.8,1.4-4.2
			l-2.3,1.2c0.9-2.2,1.8-4.5,2.9-6.7c0.1-1.1,0.3-3.3,0.4-4.4c0.5,0.7,1.4,2.1,1.9,2.8c0.6-1.7,1.2-3.3,0.7-5.1
			c-0.6-1.8,2-2.8,3.2-1.6c0.1-3.1,1-6.2,0.6-9.4c1.5-0.1,3-0.2,4.5-0.2c-0.2-0.2-0.5-0.7-0.6-0.9c0.9-0.4,2.6-1.3,3.5-1.7l1.4,2.9
			l0.4-3.5c0.7,0,2,0,2.7,0l-2.8,3.5c1.3-0.6,3.7-1.9,5-2.6c-0.7,0.6-2.1,1.9-2.8,2.5c3.2-0.2,5.3,4.4,1.8,5.6
			c1-0.3,2.9-1.1,3.8-1.4c-0.9,1.6-1.8,3.1-2.7,4.6c1.4-0.5,2.8-0.9,4.2-1l-2.5,3.8l4.1-2.5c-0.6,0.9-1.8,2.8-2.4,3.7
			c2.4,0.3,3.7,1,1.6,3.2c0.3,0.5,0.9,1.5,1.2,2c0.1,0.8,0.1,2.4,0.2,3.2c4.5-4.9,1,2.9,1.4,4.9c0.7-0.1,2.1-0.3,2.8-0.5
			c-0.4,2-0.5,4.1-0.5,6.1l3.2-2c-0.5,1.1-1.6,3.2-2.1,4.3l2.5-0.7c1,1.8,2,3.6,2.9,5.5c-0.7,0.3-2.2,0.8-2.9,1c1,0.2,3,0.7,4,1
			c-1.1,0.6-2.2,1.2-3.2,1.8c3.4-0.1,4.7,2.8,6.2,5.3c-0.9,0.5-2.6,1.3-3.4,1.8c1.2,0.3,3.5,1,4.6,1.3c-0.2,0.9-0.6,2.7-0.8,3.6
			c0.7,0,2,0.1,2.6,0.2l-3.2,1.2c2.1,2.1,4.7,0.9,6.8-0.2c-0.8-0.6-2.5-1.7-3.3-2.3c0.8,0,2.5,0,3.3,0c-0.7-1.2-2.2-3.7-3-4.9
			c1,0.3,3,1,4,1.3c-0.7-1.1-4.4-2.7-1.4-3.9c-0.5-2.1-1-4.2-1.5-6.3c0.9-1.7,1.4-4.7-1.6-4.8c1.8-2.7,0.6-6,3-8.5l-1.3,0.3
			c0.6-1.2,2.1-3.2-0.4-2.8l-0.6-4.5l2.5,1.2l0.3-1.6l-1.7-0.1c1.5-1.9,1-3.9-1-5.3c0.7-1.5,1.4-3.1,2.2-4.5c-0.7,0.2-2,0.6-2.7,0.7
			c0.6-1.1,1.8-3.3,2.3-4.4c-0.8,0.3-2.3,0.9-3.1,1.2c3.1-2.8,3.1-7.1,4.6-10.7l0.6,3l0.7,0.1c0-0.8,0-2.4,0-3.3
			c0.7,0.8,2.2,2.4,2.9,3.2c1.6-1,3.2-2,4.8-3c-0.3,0.7-1,2.2-1.3,3c1.1-0.1,3.3-0.4,4.4-0.6c1.6,1.6-0.6,4.1,1,5.9l3.6-2
			c-0.7,1-2.3,2.9-3,3.9c0.7,0,2.1,0,2.7,0c-0.3,0.6-0.9,1.7-1.2,2.2c2.4,1.7,4.7,3.6,6.9,5.5c-0.5,0.6-1.6,1.8-2.1,2.4
			c1,1.8,5.4,3.3,3.2,5.8c1.5,1.2,3,2.4,4.8,3.2c-0.4,1.1-0.8,2.2-1.2,3.3c0.6,0.6,1.9,1.8,2.6,2.4c1,0.1,2.9,0.4,3.9,0.5
			c-1.2,0.7-2.4,1.4-3.6,2.1c1.1,0,3.3,0.1,4.4,0.1c-0.3,1.2-0.6,2.5-1,3.7c2.9,2.6,3.4,6.7,5.7,9.8c-0.2-0.8-0.5-2.5-0.6-3.3
			c-0.6-1.6-1.7-2.9-2.7-4.2c1,0.1,2.9,0.2,3.8,0.2c-1.2-1.4-1.4-3.1-1.1-4.8c-0.7-2.7-3.4-5.6,0.5-8.1l-3.7,3.3
			c0.3-0.6,1-1.7,1.3-2.3c-0.4-1.2,0.1-2.4,0.7-3.5c-2-1.9-0.3-4.8,1.8-5.9c-1.7-1.8-4.1-4.3-0.5-6.7l-3.4,2.8
			c0.7-0.7,2.2-2.2,2.9-3c-0.5-0.2-1.5-0.6-2-0.8c0.5-0.4,1.4-1.1,1.9-1.5c-0.6-0.6-1.9-2-2.5-2.6c0.8-0.1,2.5-0.3,3.3-0.4
			c0-0.7,0.1-2.2,0.1-2.9c-0.6-0.5-1.9-1.5-2.6-1.9c0.7-2.5,3.7-3,4.9-5.1c2,1.5,4.6,2,7,1.2c-0.8,2.7-1.8,6.3,1.1,8.3
			c-0.7,0-2.2-0.1-3-0.1c1.1,1.6,2.2,3.1,3.4,4.7c-0.9-0.3-2.7-0.9-3.5-1.2c3.2,2.4,0.5,6.4,0.2,9.5c0.4-0.2,1.3-0.5,1.7-0.7
			c-0.7,2-0.7,3.9,0,5.8c-0.3,1-0.8,3.1-1.1,4.2l3-2.7c-0.9,2.2-0.9,4.5-0.1,6.7c-0.7-0.4-2.2-1.2-3-1.6c2.2,1.4,0.2,4,2,5.5
			l-2.5,2.4l3.4-0.6v1.1l-2.3,0.1c0.5,0.5,1.6,1.4,2.2,1.9c-1,1.1-2,2.2-3,3.3l2.8-0.6l0.3,2.5c-0.6,0.1-1.7,0.3-2.2,0.4l-0.9,1.8
			l3.1-1.5l-0.2,3.7l-1.1-0.7c-0.5,1.6-1.4,3.1-2.2,4.6l2.5-2c-0.2,1.3-0.7,3.8-1,5c-0.9,0.4-2.6,1.1-3.5,1.5l2.9,2l-2,0.2
			c-0.7-0.7-2.3-2.2-3-2.9l0.7,2.4c-1.4-0.1-2.9-0.2-4.3-0.3c0.5-0.5,1.4-1.4,1.8-1.9c-1.7-0.3-3.4-0.6-5-0.9c0.8,1,1.6,2.1,2.3,3.1
			c-3,0.1-4.3-2.6-5.5-4.7c0.9-0.2,2.7-0.5,3.6-0.6c-1.2,0-2.4,0-3.6,0.1c-0.7-0.7-2-2.3-2.7-3c0.6,0.1,1.9,0.2,2.5,0.2
			c-0.5-0.6-1.5-1.7-2-2.2l-2.4,0.4c0.5-0.8,1.4-2.4,1.9-3.2c-0.9,0.2-2.7,0.7-3.6,1c0.5-0.6,1.6-1.8,2.2-2.4
			c-1.1-0.4-2.2-0.9-3.3-1.3c1.4-0.5,2.8-1,4.2-1.6c-0.9-0.1-2.7-0.4-3.6-0.6l0.1-1.8c-1.4-0.1-2.7-0.2-4.1-0.3l-0.1-1.2l3.3,0.7
			c-1-0.7-3-2.1-4-2.8c0.3-0.5,0.9-1.4,1.2-1.8h-3.4c0.7-0.6,2.1-1.8,2.8-2.5c-1.1,0.4-3.2,1.1-4.3,1.4c0.7-1,2.2-3,3-4
			c-0.8-0.5-2.4-1.4-3.2-1.8c0.1-0.6,0.2-1.8,0.3-2.5c-0.2,0.6-0.6,1.8-0.8,2.5c-1.1-1.3-2.3-2.6-3.4-3.9c0.4-1.1,0.7-2.3,1.1-3.4
			l-3.5,1.6l1.9-2.6c-1.3-0.6-2.5-1.2-3.8-1.9c-0.7,0.9-1.3,1.7-1.9,2.6c1.2,0.8,2.5,1.6,3.7,2.4c-1.1,0.2-3.4,0.7-4.5,1
			c0.6,0.2,1.8,0.6,2.4,0.8c-1.4,1.8-0.1,3.1,1.2,4.4c-0.6-0.2-1.9-0.6-2.5-0.7l1.7,2.7l-3.1-1c0.4,0.3,1.1,1,1.5,1.3
			c-0.1,1.3-0.1,2.6-0.1,3.9c0.8-0.9,2.3-2.7,3.1-3.6c-0.3,2.8-2.2,5-3.5,7.3c0.6,0.6,1.9,1.8,2.5,2.4c-0.7,0.6-2,1.8-2.7,2.4
			c0.4,0.1,1.3,0.2,1.7,0.2c-1.5,2.8-0.6,5.3,1.5,7.4c-0.3,0.2-0.9,0.6-1.2,0.8c0.3,0.5,0.9,1.4,1.2,1.9c-0.6,0.4-1.8,1.1-2.4,1.5
			l1.9,3.4c-1-0.2-2.9-0.5-3.9-0.7c0.1,0.6,0.3,2,0.4,2.6H618c0.2-0.5,0.5-1.4,0.7-1.9l-4.3-0.2l1.2,2.7c-2.8-2.3-5.9-4.4-9.7-3.1
			c0.6,0.7,1.8,2.2,2.4,2.9c-3-0.2-5.2-2.3-7.3-4.1l1.8,3.6c-1,0-3.1,0.1-4.2,0.1l2.6-3c-1.2,0.4-3.5,1.3-4.7,1.7
			c0.3-1,0.9-3.2,1.2-4.2l-1.1-0.2c-0.4-2.7-2.7-3.9-4.7-5.4l3.2,0.7l-0.1-0.6c-1.8-1.1-3.5-2.4-5.2-3.7c0.6-0.3,1.9-1,2.5-1.3
			l-1-1.8c-1.5,0.3-3,0.6-4.5,0.8c-0.3,0.3-1,1-1.4,1.3c-0.9-0.9-1.8-1.8-2.8-2.6c-0.7,0-2-0.1-2.7-0.2c0,0.6,0,1.8,0.1,2.4
			c-0.7-0.5-2.1-1.6-2.8-2.1l-0.5,2.2c-0.4-0.5-1.2-1.4-1.7-1.8c-0.1,0.6-0.4,1.9-0.5,2.6c-1.5-1.2-2.9-2.3-4.4-3.5l-0.5,3.3
			c-1.8-3.7-4.8-1.9-6.5,0.6c1,0.1,2.9,0.2,3.9,0.2c-0.7,0.7-2,2-2.6,2.6c0.5,2.8-0.4,3.5-2.8,2.3c0.4,0.6,0.9,1.3,1.3,1.9
			c-0.6,1.6-1.2,3.3-1.7,4.9c-1.2,0.6-2.4,1.1-3.6,1.7l-0.1-1.2c-1.1,0.2-2.2,0.3-3.3,0.5c-0.4,0.3-1.2,1-1.6,1.3
			c-0.3-0.7-0.9-2.2-1.1-3l-0.6,0.3c-1.9-0.7-3.2,0.6-3.4,2.5c-0.9-0.5-2.7-1.4-3.6-1.8l0.7,3c-2.8-1.7-6.3-2.7-7.5-6.1l1.3-3.5
			l-3,3.3c0.2-1.1,0.5-3.4,0.7-4.6l1.6,1.3l-0.6-2.9l0.6-2.6l-2,1.8c-0.5-1.1-0.9-2.1-1.3-3.2c1.3-0.5,2.6-0.9,3.9-1.4
			c-0.7-0.2-2.1-0.6-2.9-0.7l2.5-3l-3.3,1.4c-0.3-0.9-0.9-2.6-1.3-3.5c0.7,0.1,2.1,0.4,2.8,0.5l-0.5-1.1c-2.6-1.3-5-3-7.9-3.8
			c-0.3-0.6-0.8-1.9-1.1-2.5c-0.2,0.9-0.5,2.8-0.6,3.8c-1.1,0.1-2.2,0.2-3.3,0.4c-0.3-1-0.9-3-1.2-4c-1.4,1.1-1.6,2.5-0.5,4
			c-1.1,0-3.4,0-4.5,0.1c0.7-1.8,0.5-3.4-0.8-4.7c-1.5,1.9-1.3,4.4-2.2,6.5c1.4-0.6,2.9-0.7,4.4-0.5c-0.7,0.6-2.3,1.9-3,2.5l2.2,0.1
			c-0.7,1.5-0.5,3.1,0.1,4.6c-0.9-0.1-2.7-0.3-3.6-0.4c0.9,0.9,2.7,2.7,3.6,3.6c-1.5,2.7-1.2,5.6-0.5,8.5c-0.2,0.4-0.7,1.3-0.9,1.8
			l0.8,0.5l1,0.8l-1.8-0.1l-0.4,0.6l-0.8,0.2c-0.3,0.3-1,0.9-1.3,1.2c-1.3-0.5-3.8-1.6-5-2.1l1.4,2.8l-0.8-0.2
			c-0.9-0.9-2.6-2.5-3.5-3.4l1.7,4.2c-1.9-1.6-3.5-3.4-4.7-5.6c0.7,0.2,2.2,0.6,2.9,0.8c0.3-0.4,0.9-1.3,1.2-1.8
			c-0.7-0.3-2.2-1-3-1.3c1.1-1.1,2.2-2.3,3.3-3.5c-0.4-0.1-1.3-0.3-1.8-0.4c0.2-1.2,0.6-3.5,0.8-4.7l-2.8,2.1l1.1-2.7l-0.6-2.1
			c2.1-0.8,2-2.5,1.2-4.3c0.1-0.3,0.3-0.8,0.4-1c-0.4-2.4-0.6-4.8-1.3-7.1l2.1-0.4c-0.8-0.5-2.4-1.4-3.2-1.9
			c0.9-0.9,1.7-1.8,2.7-2.7c-0.9-1.8-1.7-3.7-2.5-5.5l1.8,1.2c0.2-1.7,1.2-3.2,1.5-4.8c-0.7-1.9-1.8-3.5-2.9-5.1
			c5.6,2.8,1.1-2.4-0.4-2.7c0.8-1.1,1.5-2.7,3.1-2.4c0.1-0.6,0.4-1.7,0.5-2.3c-2.2,1.1-2.8-1.7-3.7-3.1c1.1,0,3.2-0.1,4.2-0.1
			l-1.7-2.5l1.1-0.4c0.9,4.4,4.4-3.5,7-1.2c-0.7,1.5-1.4,2.9-2.1,4.4c1-1.2,2-2.3,3.1-3.4l1.6,1.3l3.9,0.5
			C519.1,254,517.9,253.1,516.6,252.1z M524.7,261.5c-0.1,0.8-0.4,2.4-0.5,3.2c-1.4-0.6-4.2-1.7-5.6-2.3l2.1,3.4
			c-2.1-0.1-3.3-1.1-3.5-3.2c-0.5,0.7-1.6,2-2.1,2.6c-0.2-0.4-0.7-1.2-1-1.6l0.4,3.3c0.7-0.9,1.4-1.7,2.2-2.5
			c-0.2,1.4-0.6,4.1-0.8,5.5c0.4,0.1,1.2,0.4,1.6,0.5c-0.7,0-2.2,0-2.9,0.1l2.1,2.3h-2.9c1.1,1.1,3.4,3.2,4.5,4.2
			c-1.2-0.2-3.7-0.6-4.9-0.8c2,1,4,1.8,6.1,2.6l-0.9,2.5l2.1-1.7c0.6,0.3,1.8,1,2.4,1.3l2-3.1c0,1.1,0.1,3.4,0.1,4.5
			c0.3-1.3,0.6-2.5,1-3.8c1.3,0.3,2.6,0.6,3.9,0.9c0.8-0.5,2.5-1.6,3.3-2.1c0.1,0.8,0.3,2.4,0.4,3.2c1.4-2.2,4-4.8,2-7.5
			c0.9,0.4,2.6,1.2,3.5,1.6c-1.8-1.3-3-3.1-3.6-5.2c1.3,0.6,2.5,1.3,3.8,1.9c-1-2.1-2.8-3.6-4.2-5.4c-2.2-0.4-4.5-0.6-6.8-0.8
			c-0.2-0.6-0.6-1.8-0.8-2.4l-2,1.5C525.4,263.5,524.9,262.2,524.7,261.5z M579.4,265c-0.2,0.9-0.5,2.6-0.6,3.5
			c-0.8,0.2-2.3,0.5-3,0.6c0.7,0.2,2.2,0.6,3,0.9c-0.9,1.7-2.7,3.3-2.1,5.4c-0.9,0.6-1.9,1.2-2.8,1.8c0.2,1.3,1.4,2.9-0.8,3.6
			l3.6-0.2c-2.1,1.6-7.8,2.2-3,6.2l-2.8-2.3c0.3,2.1-1.9,7.2,2.6,6l-0.2,1.6h1.5l0.1-2.2c1,0.1,2.9,0.2,3.9,0.2v0.8
			c-0.9,0.5-2.8,1.4-3.7,1.9c2.1-0.4,4.3-0.9,5.9-2.4c1.3,0.5,2.6,1.1,4,1.6c0.4-0.8,1.3-2.3,1.8-3c0,0.8,0.1,2.4,0.1,3.2
			c1-0.1,2.9-0.4,3.9-0.5c-0.7-0.6-2.2-1.8-3-2.4l2.1-1.6c-1,0.2-2,0.5-2.9,0.7c-1.1-1.6-2.2-3.2-3.3-4.8l3.9,1l-1.7-2.7
			c-0.9-0.1-2.8-0.4-3.7-0.5c0.9-0.5,2.7-1.4,3.5-1.9c-4.4-1.1-5.4-5.5-5.5-9.5l2.4,1c0-0.3,0-0.9,0-1.1l-2.4-0.1
			C580.4,268.2,580.7,266.4,579.4,265z"/>
	</g>
	<g>
		<path d="M680.2,252.4c0.8,1.1,1.6,2.1,2.5,3.2c2.2-1,4.2-2.3,6.2-3.6c0,0.8-0.1,2.4-0.1,3.2c0.3-0.8,0.8-2.5,1.1-3.3
			c0.3,0.8,1.1,2.4,1.4,3.2c0.9-0.8,2.8-2.4,3.7-3.3c-0.2,1-0.7,3.1-0.9,4.1c1.4-0.3,2.8-0.6,4.2-0.9c0.3,0.3,1,0.8,1.4,1.1
			c0.1-0.6,0.2-1.7,0.2-2.3c1.2,0.2,3.7,0.6,5,0.8c-0.8,0.2-2.4,0.5-3.2,0.7c0.8,0.6,2.4,1.7,3.2,2.2c0.4-0.8,0.9-1.6,1.3-2.3
			c1.9,1.3,3.8,2.7,4.7,4.9l2.7-1.9l-1.8,2.8c1.3,1.1,2.5,2.3,3.7,3.4c-1.4,1.8,0.5,3.9,0.8,5.7c0.7-0.1,2.1-0.2,2.8-0.3
			c0.3,0.6,0.8,1.8,1.1,2.4c-0.7,0.7-1.4,1.3-2.1,2c1,0.3,3,0.8,4,1c-0.4,0.1-1.2,0.4-1.6,0.6c2.6,2.1-0.3,3.2-1.6,4.3
			c-0.4,1,0.8,1.9,1.1,2.8c0.6-1.2,1.3-2.4,2-3.5c0.9,3,0.1,5.2-2.4,6.5c0.9-0.3,2.7-0.9,3.5-1.2l-0.8,4l-1.1-1.5
			c-0.2,0.4-0.7,1.3-1,1.7c0.6,0.9,1.8,2.8,2.4,3.8l-3.1-1.6c1.7,2-0.3,3.5-1.1,5.1c0.6,1.9,2.5,5.1-0.6,6c0.1,0.9,0.3,2.7,0.4,3.6
			c-0.9-1-1.8-2.1-2.6-3.2c1.1,2.2-0.5,9-3.6,5.5c0.7,3.6-3.3,5.9-6.4,4.4c-0.7,0.2-2.2,0.5-3,0.7c0.3,0.9,0.7,1.9,1,2.9
			c-4.5-1.9-9.5-1.6-14.2-2.5c1.2,0.4,2.5,0.7,3.7,1.1c0.8,0.6,2.4,1.9,3.1,2.5c-1.7-0.3-3.4-0.9-5-1.6c-0.4,0.4-1.3,1.3-1.7,1.7
			c-1.4-1-2.8-2.1-4.1-3.2c0.3,0.7,0.9,2.2,1.2,3c-2.4-1-5.1-0.9-7.6-0.4l0.8-1.8c-1.4,0.4-2.8,0.9-4.2,1.3l-0.5-2
			c-0.5,0.6-1.6,1.7-2.2,2.3c-0.6-0.6-1.9-1.9-2.6-2.6c-0.8-2.1,2.5-2.3,3.4-3.3c-1.6,0.3-3.3,0.6-4.9,0.8c0.6-1.2,1.9-3.5,2.6-4.7
			c-1.3-1.3-4.8-4-0.2-4.2c-0.2-1.1-0.4-3.2-0.6-4.3l-1.1-0.2l0.9-2.6c0.7,0.2,2,0.6,2.7,0.7c-1.2-0.9-3.6-2.6-4.7-3.5l3.2,1.3
			c-0.2-0.9-0.7-2.7-0.9-3.6c0.5-0.1,1.5-0.4,2.1-0.5c-2.1-1.1-2.9-2.7-1.6-4.8c-0.7-0.1-2.1-0.4-2.8-0.6l2.7-1.4
			c-0.9-1.2-1.7-2.3-2.5-3.5c0.8,0.3,2.5,1,3.4,1.3c0-0.6-0.1-1.9-0.1-2.5c-3.2,2.2-1.6-2.9-2.4-4.3c0.4-1.9,0.9-3.7,1.4-5.6
			c-0.3-2.3,1.1-4.4,1.4-6.5c-0.7-0.1-2-0.3-2.7-0.4c0.6-1.6,1.4-3.2,2.3-4.7c-0.5-0.3-1.5-0.9-2-1.3c1.5-0.7,4.5-2.2,6-2.9
			c-0.9,1.3-2,2.4-3.3,3.3C675.4,255.6,677.7,253.7,680.2,252.4z M684.9,261.7c-0.6,0.5-1.9,1.5-2.5,2c1,0.1,3.1,0.4,4.1,0.5
			c-2.5,0.7-5,1.2-7.4,1.8c0.5,0,1.4,0.1,1.9,0.1c-0.2,2.5,1.2,4.7,2.2,6.8l-3.3-1.5c0.8,1.7,2,2.7,3.8,3.2
			c-0.8,0.4-2.4,1.2-3.2,1.6c0.7,1.9,1.6,3.7,2.4,5.6c-0.6,0.7-1.9,2.3-2.5,3c0.8,0.5,2.5,1.6,3.3,2.1l-3.5-1
			c1.4,1.8,2.5,3.8,3.5,5.9l-3.4-2.8l0.7,3l2.2,1.1c-0.2,2.8-0.3,5.7-0.4,8.5c-0.9,0.3-1.8,0.6-2.7,0.9c0.1,0.5,0.3,1.5,0.4,2
			c2.7,2.6,5.8,0.9,8.7-0.2c1.1,1.1,2.3,2.1,3.4,3.2c1.4-0.7,2.8-1.4,4.2-2.1c-1.2-0.1-3.7-0.4-4.9-0.5c2.9-0.2,6-0.5,8.5-2.1
			l0.8,3.1c0.4-0.7,1.1-2.2,1.5-3l0.3-0.9l0.5-0.1l0.6,0.7c1.7,2.3,1.7-3.1,2.3-4c0.9-0.5,1.7-1,2.6-1.5c-0.9-0.5-2.6-1.5-3.4-2
			c2.7,0.2,4.5-1.7,5.9-3.7c-1,0.1-3.1,0.4-4.1,0.6c0.9-1.2,2.7-3.5,3.6-4.7l-3.7,1.7c0.8-1.4,2.3-4.1,3.1-5.4l0.1,2.2l0.6,0.2
			c-0.1-0.7-0.2-2.2-0.3-2.9c-0.6-0.6-1.8-1.8-2.4-2.4c0.7-1,1.4-1.9,2.1-2.9c-1.5,0.1-2.9-0.1-4.3-0.6c0.8-1.2,1.7-2.3,2.5-3.5
			c-2.5,0-3.4-2.2-2.7-4.5c-0.9,0-2.7,0-3.6,0c0.5-0.7,1.4-2.1,1.9-2.8c-2.4-0.7-4.8-1.5-7.2-2.3c0.5,2.7-1,2-2,0.4l-3.4,1.2
			c0.5-0.6,1.6-1.9,2.1-2.5c-1.2-0.4-2.4-0.9-3.5-1.3l0.6,2c-1.3-0.1-3.9-0.4-5.2-0.6C685.5,262.9,685.1,262.1,684.9,261.7z"/>
	</g>
	<g>
		<path d="M312.5,254c1.4,4.9,3,0.4,4.4-0.7v2.8c0.8-0.8,2.5-2.3,3.4-3.1c-0.3,0.9-0.8,2.6-1.1,3.4c1.4,1,2.8,2,4.2,3
			c-0.4,0.4-1.3,1.1-1.8,1.4c1.5,0.6,3,1.3,4.5,1.9c-3,3.2-0.6,7.7,3.4,8.5c-1.2,0.4-2.3,0.9-3.5,1.3c0.7,0.2,2.2,0.5,3,0.7
			c-1.6,2.2,0.6,4.7,0.9,7l2.2-1.9l-1,2.9c1.5,1.2,5.4,3.1,3.3,5.4c0.7,1.2,1.4,2.4,2.1,3.6c-0.5,1.2-0.9,2.4-1.3,3.6
			c0.9-0.4,2.6-1.2,3.5-1.6c-1.4,2.2-1.6,4.6,0.7,6.1c-1.8,1.3-0.2,2.9,0.1,4.3c0.8-0.1,2.4-0.1,3.2-0.2l-2,2.7
			c1.2,0.7,2.4,1.5,3.7,2.2c-0.8,0.9-2.3,2.6-3.1,3.5l3.6-1.4c1,1.9-0.3,3.6-0.9,5.4c0.9-0.5,2.6-1.4,3.4-1.9
			c-0.6,1.5-1.3,2.9-1.9,4.4l-1.9-1.6c0,0.8-0.1,2.4-0.2,3.3c-0.5-0.7-1.4-2.2-1.8-2.9c-1,0.9-2,1.9-2.9,2.8c-0.1-0.7-0.3-2.2-0.4-3
			c-0.5,0.1-1.6,0.4-2.2,0.5c-0.4-0.7-1.2-2.1-1.6-2.8c0.1,1.1,0.2,3.2,0.3,4.3c-2.7-1.2-1.9-3.7-0.9-5.6c-1.1-0.6-2.3-1.2-3.4-1.8
			c0.4-0.9,1.3-2.8,1.7-3.8l-3.4,1.6l1.4-2.2c-2.3-1.3-3.6-3.8-5.3-5.6c-0.6,0.7-1.9,2.2-2.6,2.9c0-0.9-0.1-2.8-0.2-3.8
			c-2.8,1-6.1,3-8.7,0.7c-1.1,0.9-2.2,1.8-3.4,2.8c-0.2-0.6-0.7-1.9-0.9-2.5c-0.5,0.6-1.4,1.8-1.9,2.4c0.3-5.3-4.2-0.1-6.7-0.3
			c0.8,0.5,1.6,0.9,2.4,1.4l-2.9,1.5l3.1-1c-0.5,1.1-1.6,3.4-2.1,4.6l-1.6-0.9c0.3,0.5,0.9,1.5,1.2,2c-0.9,0.3-2.6,1-3.5,1.4
			c1,0.2,3.1,0.7,4.1,1c-1.4,0.7-2.9,1.2-4.4,1.4c-1.4,1.2-2.7,2.5-4.1,3.7c-1.8-2-4.3-1.3-6.5-0.6c-1.1-0.8-3.2-2.3-4.3-3.1
			c0.5,1.2,1.5,3.4,1.9,4.6l-1.2-0.2c-0.3-0.5-0.9-1.6-1.1-2.2l-0.6,2.3c-2.4-2.5-5.7-1.3-8.6-1.1l0.3,3.1c-0.6-1.1-1.7-3.4-2.3-4.5
			c-0.6,0.3-1.8,0.9-2.4,1.3c0.4-0.5,1.1-1.4,1.5-1.9c-2.1-2.4-2.4-6-5.1-8l1.5-1.4c-4.1,2.3-3.7-2.6-5.8-4.4l0.4-0.7
			c-1.2-1.8-2.4-3.7-3.7-5.3c0.4-0.6,1.1-1.8,1.5-2.4c-1.1,0.2-3.3,0.5-4.4,0.7c0.7-1,2.1-2.9,2.8-3.9c-1,0.3-3.1,1-4.1,1.3
			c0.6-1.9,1.2-3.8,1.7-5.7c-0.5,0.7-1.6,2.2-2.1,2.9c-0.9-1.8-2.1-3.5-2.3-5.5c-1.7-0.8-4.3-2.9-1.2-4c-1.3-1.9-2.6-3.8-3.9-5.7
			c-0.5,0.8-1.5,2.4-2,3.2c1,0.9,1.9,1.8,2.9,2.8c-1,0.1-3.1,0.4-4.1,0.5l2.5,1c-1.7,1.8-0.2,3.6,1,5.1c-1.8,1.5-0.7,3.2-0.1,4.9
			c-3.3,0.4-1.7,3.1-1.4,5.2c2.1,1.7,1.2,4.4,1.1,6.7c-0.4,0.1-1.3,0.3-1.7,0.5c-0.3-0.5-1-1.5-1.3-2c0.5,2.1,0.9,4.2,1.4,6.3
			c0.7,0,2,0,2.7,0c-1.1,1.3-2.2,2.7-3.3,4c0.8,0.3,2.3,0.8,3.1,1.1c-1.1,0.3-3.2,1-4.3,1.4c1.3,0,2.7,0.1,4,0.1
			c-0.6,1.3-1.2,2.6-1.7,4c-1,0.1-3,0.2-4,0.2c0-0.7-0.1-2-0.1-2.7c-0.3,1.4-0.6,2.7-1,4.1c-1.7-1.4-6.9-1.8-4.1-4.8
			c-0.2-1.6,0.1-3.6-2.1-4c0.5-0.7,1.5-2,2-2.6l-1.9-0.4c0.2-0.8,0.6-2.4,0.7-3.1c1.7-2.4-0.2-5-2-6.6c0.7,0,2.1,0,2.9,0.1
			c-0.8-0.7-2.5-2.2-3.3-2.9c1.3-1.5,2.7-2.9,4.1-4.2c-1.1-1.6-2.2-3.1-3.3-4.7c0.8,0.2,2.5,0.5,3.3,0.7c-0.4-0.6-1.3-1.8-1.7-2.4
			c-0.5,0.3-1.6,1-2.1,1.4c0-0.6,0-1.8,0-2.5c0.6,0,2,0,2.6,0c-1.4-2.1-1.3-4.2,0.3-6.2c-6.8,4.8,2-3.6-2.8-5c0.6-1.9,4-4.5,0.7-5.7
			c0.8-1.2,2.4-2.2,2.5-3.7c-1-1.4-4.3-1.6-2.8-3.9c0.8,0.1,2.5,0.4,3.4,0.5c-0.6-0.5-1.9-1.4-2.5-1.9c1.7-2.9,4.4-1.9,4.8,0.9
			c-0.1-0.7-0.2-2-0.3-2.7c0.6,0.3,1.8,0.9,2.4,1.2l-0.8-2.8l2,1.5c1.6-0.8,3.2-0.1,4.7,0.2c0.1,0.9,0.3,2.5,0.5,3.4
			c1-0.7,2.9-2,3.8-2.7l-1.8,3.1c0.6,0.3,1.7,0.8,2.2,1.1c0.3,3.2,3.4,5,4.4,8c0.9,2.9,2.9,5.4,3.3,8.4c2.8-0.6,8.3,3.4,1.5,4.6
			c1.1-0.1,3.4-0.2,4.5-0.3c-0.4,0.6-1.1,1.8-1.5,2.4c1,0.3,3.1,0.8,4.1,1c-1.2,0.6-2.5,1-3.9,1.3v0.3c1.6,0.6,3.2,1.2,4.8,1.8
			l-2,2.8l3.9-2.1c-0.7,1-2.2,3-2.9,4l2-0.9l-1,2.3l0.9,0.2l0.2-3.5c3.5,1.7,1.2,4,0,5.8l2.6-1.2c-0.3,0.9-0.9,2.7-1.2,3.6
			c1.4-2,3.4-3.3,5.4-4.6c-0.9,0.2-2.6,0.6-3.5,0.9l1.4-3.4c-0.5,0-1.6-0.1-2.1-0.1l0.3-1.3c7.7,6.3,0.8-2.5-0.1-5.1
			c0.7-1.7,1.2-3.5,1.6-5.2c5.7,1.2-1-1.3-1.6-2c1-0.7,3-2.1,4-2.7c-0.9,0-2.8-0.1-3.8-0.1c0.6-0.8,1.3-1.6,2-2.3
			c-1.2-1.3-1.3-2.8-0.4-4.5c-0.4-0.8-1.3-2.5-1.7-3.3c0.8,0.2,2.4,0.5,3.2,0.7c-1.9-1.6-1.8-3.9-2-6.1c-0.7-2.1,0.2-3.4,2.4-3.8
			l-2-2.1c2.2,0.7,4.4,1.5,6.6,2.3c1.1-0.8,2.1-1.6,3.1-2.5c-0.1,1.2-0.2,3.6-0.3,4.8l2.4-2.5l-0.5,4.7L282,260
			c-0.1,1.3-0.1,2.6-0.1,3.9l3.7-1.6c-1,0.9-2.9,2.8-3.9,3.8c0.4,0.1,1.3,0.3,1.8,0.4l-1.6,2.8l2.9-1.9c-0.2,1-0.5,3.1-0.7,4.1
			c-1.1-0.8-2.2-1.7-3.3-2.5c0.8,1.5,1.6,3.1,2.3,4.6c-0.7,1.7-0.7,3.5,0,5.2c-0.3,0.6-0.8,1.9-1.1,2.5c4-1,2.1,3.5,2.9,5.4
			l-1.4,0.2l0.2-2.6l-1.2,0.1c-0.1,0.6-0.3,1.9-0.5,2.5l-0.4,0.8c-0.1,0.8-0.4,2.3-0.5,3.1c1.2-1.1,1.9-1,2.3,0.2
			c-0.3,1.6,0,3.1,0.8,4.5c-0.5,0.1-1.4,0.4-1.9,0.6c0.8,0.8,2.4,2.5,3.2,3.3l-3-1.7c0.2,0.8,0.8,2.3,1,3l-1.1,1.9
			c1,0.9,2,1.7,3,2.6l-3.1,0.2c0.5,0.4,1.6,1.2,2.2,1.6c-0.2,0.4-0.6,1.3-0.9,1.8c1,0.9,2,1.8,3.1,2.8c-1.1-0.1-3.3-0.2-4.4-0.3
			c0.8,1.2,2.4,3.7,3.1,5c1.4-2.6,3.1-5.3,1.9-8.4l3.7,1.4c-1-1-3.1-3-4.1-4c1.1,0.1,3.2,0.2,4.3,0.2c-1-1.7-1-3.7-1.3-5.6l2.9,1.8
			l-2-3.3c0.8,0.2,2.3,0.6,3.1,0.8l-0.1-1.3c-0.7,0.1-2.1,0.2-2.8,0.3c0.5-1.5,1.1-3.1,1.6-4.6l2.2,2.2c-1.5-2.9,0.2-5.6,0.8-8.4
			l1.9,0.5c-0.6-1.9-0.3-3.7,1.4-5c0.3-0.7,0.9-2.1,1.2-2.8l-2.5,0.7l0.2-0.6c1.3-1.1,2.5-2.3,3.7-3.6c0.1-1.3,0.2-2.6,0.3-3.9
			c0.5,0.5,1.6,1.6,2.1,2.1c-0.1-1.8-2.3-4.4,0.2-5.5c1.9-1.4-0.1-4.3,2.1-5.9l0.7,1.9l1.2-0.1c-1-1.3-2-2.6-2.9-3.9l2.2,1.1
			c0.4-0.6,1.3-1.7,1.8-2.3c0.9-1.4,1.9-2.7,2.8-4.1c-1.5,1.2-2.9,2.4-4.4,3.7C307.8,256.6,310,255,312.5,254z M314.4,266.1
			c0.3,1.1,1,3.2,1.3,4.2c-1.7,1.1-3.4,2.3-4.1,4.3c1-0.7,2.9-2.1,3.8-2.9c-0.5,1.7-1,3.4-1.4,5.1c-0.3-0.1-0.8-0.4-1.1-0.5
			c-0.9,3.8-5.6,6.9-3.4,11.1l-3-1.8c1,2.4,2.1,4.8,3.3,7.1c-2.2-0.2-2.8-2.3-3.8-3.8c0,1.2,0,3.5,0,4.6c1.6-0.3,3.2-0.6,4.8-0.9
			c0.4,0.4,1.3,1.2,1.7,1.6c1.2-1.6,2.8-2.1,4.8-1.2l-1.2-2.6c1.9,0.1,5.1,6.2,4.2,1l0.8-0.3l-0.5,2.5c1.2-0.3,3.6-1.1,4.9-1.4
			c-1.6-1.3-3.2-2.5-4.8-3.7c1.8-0.3,3.6-0.5,5.4-0.7c-1.2-1.8-3.3-0.7-5-0.4c-0.5-2-1.3-4,0.8-5.3c-1.4-0.9-3.1-1.5-4-2.9
			c0.2-1.7,0.6-3.5,0.6-5.2C315.2,272.3,317.6,268.1,314.4,266.1z M328.4,301.5l-0.5,0.9c0.4,0.3,1.3,0.9,1.7,1.2l0.5-0.9
			C329.7,302.4,328.8,301.8,328.4,301.5z"/>
	</g>
	<g>
		<path d="M465.6,253.8l1.2,0.9c-0.7,1-1.4,2-2,3c1.9-0.4,2.8-2.2,3.7-3.7l1.4,0.1c0.2,0.6,0.6,1.9,0.9,2.6
			c-0.1-0.9-0.2-2.7-0.2-3.5c0.7,0.5,2,1.4,2.6,1.9c0.9-0.5,2.6-1.5,3.5-2l-1.4,2.5c2,0,4.2,2.4,6,0.5c0.3,0.4,1,1.2,1.4,1.6
			l-0.8-3.3c2.2,1.2,4,3,5.7,4.9c0.1-0.8,0.4-2.4,0.6-3.2c0.7,0.5,2,1.6,2.7,2.1c-0.3,0.5-1.1,1.4-1.4,1.9c1.4,0.6,2.8,1.3,4.3,1.9
			c-0.4,0.2-1.1,0.7-1.5,1c1,0.3,3,0.8,4,1.1l-1.8,1.9c0.8,0.6,2.3,1.8,3,2.5l-2.7,1.8c0.8,0,2.3,0,3.1,0l1,1.6
			c-0.6-0.2-1.9-0.5-2.5-0.7c-0.5,0.8-1.5,2.4-2,3.2c-0.7-1.2-1-2.4-1.1-3.8c-0.8,1.4-1.7,2.8-2.6,4.1c0.6-5.6-2.3-0.9-3.8,0
			c-1-0.7-2-1.3-2.9-2c3.8-3.5-1.2-5.1-3.8-6.3l2.3-2c-3,0.6-6,0.8-9,1.1l1.7-2.5l-4.2-0.5l1.6,3.1c-1.3-0.7-2.5-1.3-3.8-1.9
			c-0.9,1-2.8,3-3.7,4c0.2-1.2,0.6-3.5,0.7-4.7c-0.7,1-1.5,2.1-2.2,3.1l0.7,1.8c-1.1-0.1-3.4-0.4-4.5-0.5c0.7,0.7,2.3,2.2,3,3
			c-1.2-0.3-3.4-1-4.6-1.4c1,1.1,2.1,2.3,3.1,3.4c-1.4,1-2.8,1.9-4.3,2.7l0.4,2c-0.6-0.2-2-0.6-2.6-0.8c1,0.9,1.9,1.8,2.9,2.7
			c-4.6,0.7-2,5.9-3.6,8.9c0.6,0.3,1.7,0.8,2.3,1.1c-0.4,0.6-1.3,1.9-1.7,2.5c1.1-0.1,3.2-0.2,4.2-0.2c-0.4,0.4-1.2,1.2-1.6,1.6
			c1.2,3.9,1.9,7.9,2.6,12c2.8-0.6,5.8,0.6,7.7,2.7c-0.8,1.7-2.7,0.3-3.3-0.7l-0.2,2.3c1.5-0.1,3,0,4.5-0.1c0.1-0.5,0.2-1.5,0.3-2
			c0.6,0.4,1.8,1.1,2.4,1.5c-0.2,0.6-0.6,2-0.7,2.6c1.2-1.3,2.4-2.6,3.6-4c1.9,0.1,3.8,0.2,5.7,0.2c1.3,0.7,2.6,0.8,3.9,0.1
			c1,0.1,2.9,0.3,3.8,0.3c-1.7-1.9-2.2-5.4,1.4-4.4c-0.8-0.8-1.7-1.6-2.5-2.4c0.5-0.7,1.4-2.2,1.9-2.9c-0.8,0.7-2.4,2.1-3.3,2.8
			c-0.2-1.5-0.5-4.6-0.7-6.1c1,0.4,3,1.3,4,1.8c-0.7-0.5-2.1-1.3-2.8-1.8c0.4-0.6,1.3-1.8,1.8-2.4c-0.8,0.3-2.5,0.8-3.4,1.1
			c-0.5-0.7-1.5-2-2-2.7l-0.2,3.1c-1.6-0.6-3-2-4.7-2.1c-1,0.8-1.9,1.6-2.8,2.4c0-0.9-0.1-2.6-0.2-3.5c-2.2-1-1.9-3.4-2.2-5.4
			l1.4-0.5c-0.1-0.7-0.4-2.1-0.5-2.8c2.7,3.4,5.9-1.8,8.2,0.8c2.5-0.3,5-0.6,7.4-0.9c-1.6,1-3.1,2-4.7,2.9c2-0.2,3.9-0.3,5.9-0.4
			c-0.5-0.4-1.5-1.3-2-1.7c1.1,0,3.4-0.1,4.5-0.1l-0.4,2.1c1.6-2,3.6-4.3,5.9-1.8l-1.9,1.2l1.2,1.6c-1.7,1.4-2.2,3.4-1,5.4l2.7-0.1
			c-0.9,1.1-2.7,3.2-3.6,4.3l3.3-1c-0.4,1.7-0.6,3.5-0.3,5.3l-2.5-0.8c1.3,1.1,2.5,2.3,3.6,3.5c0.2,2.4-0.5,4.7-1.6,6.8
			c-0.1,0.8-0.4,2.5-0.5,3.4l3.2-1.6c-1.1,2.7-2.9,3.9-5.6,3.6c-2.3,1.6-4,4.1-6.8,4.9l1.6-3.1l-2.9,0.2l0.3,2.4
			c-1.7,0.2-3.4,0.5-5.2,0.4v0.5c-1.1,0.1-3.4,0.3-4.5,0.5l4-3c-2.6,1.6-5.2,1.8-7.7,0.4c0.2,0.6,0.5,1.7,0.7,2.3
			c-2.1-0.1-4.2-0.1-6.3-0.2l0.6-1.8c-1.3-0.6-2.6-1.1-3.9-1.7L464,316c0.8,0.8,2.5,2.3,3.3,3.1c-2.5-0.9-4.8-2.2-6.9-3.8
			c0.2,0.7,0.7,2,0.9,2.7c-2.2-1.5-4.5-3-6.8-4.3c0.3-0.3,0.8-1,1.1-1.3c-1.6-0.6-3.2-1.4-4.7-2.2c-1-3-1.4-6.2-2.8-9.1l-0.4,0.2
			c-0.5-1.9-1.8-3-3.9-3.3c0.9-0.5,1.9-0.9,2.8-1.3c-0.5-2.1-0.9-4.2-1.5-6.3c-0.1-2.7-2.5-5.1-0.3-7.7c-0.3-1.7-4.1-6.8,0.7-3.3
			c-0.4-0.6-1.3-1.8-1.7-2.4c3.1-0.5,3.5-1.9,1.5-4.3l2.2,1.6c0.7-1.9,1.6-3.8,2.5-5.7c-0.3-1-0.7-2.1-1-3.2l3.2,1.6l-1.5-2.3
			c0.4-0.8,1.1-2.3,1.5-3c2.9,2.9,2.9-2.1,4-3.6c1.1-0.5,2.1-1.1,3.2-1.7l0.3,1.1c0.8-0.3,2.4-0.8,3.2-1c-0.1-0.2-0.4-0.7-0.5-0.9
			C463.2,255.1,464.8,254.2,465.6,253.8z"/>
	</g>
	<g>
		<path d="M109.8,257.3c-0.1-0.4-0.3-1.3-0.4-1.7c1.8,1.4,4.2,2.2,6.2,0.5c0.7,0.4,2,1.2,2.7,1.6c1.4-0.7,2.8-1.4,4.2-2.1
			c0.9-0.1,2.7-0.4,3.6-0.5l-0.2,1.5c1.3-0.8,2.5-1.5,3.8-2.2l-1.4,3.7l4.2-3.4l-2.2,4.7c1.6-1.6,3.1-3.4,4.7-5l0.1,3.3l2.1-1
			c-0.1,0.7-0.2,2.2-0.3,3c1.8-1.6,3.6-3.1,6.2-2.1l-1.5,2.4l1.1,0.3l0.5-1.9c1.6,2.1,3.1,4.3,4.4,6.6c2.5,0.7,1.1,2.7,0.5,4.3
			c0.7-0.3,2.1-0.9,2.8-1.2c-0.6,2-1.2,4.1-1.8,6.1c0.7-0.5,2-1.4,2.7-1.9c0,2-0.1,4-0.1,6c-0.5-0.5-1.4-1.7-1.9-2.2
			c-1,2.3-2.8,4.9-0.7,7.2c-0.4,0.3-1.1,0.8-1.4,1c-1.4,0.3-5-0.6-3,2.5c-1.3-1.2-3.1-2-4.3-0.2c2.1,2.5,6.2,1.7,6.9,5.7
			c0.5,0.1,1.3,0.2,1.8,0.2c-0.1,4.1,0,8.4-2,12.1c1.1-1,2.2-2.1,3.3-3.2c-0.3,1.8-0.9,5.5-1.2,7.3l3.3-2.4c-0.7,0.7-2,2-2.7,2.7
			c0.4,0.3,1.3,0.9,1.7,1.2c-0.5,0.4-1.4,1.2-1.9,1.6c5.7-0.2,0.9,4.7,0.7,7.2l-1.1-2c-1.6,1.1-3.2,2.2-5,3.1
			c0.5-0.7,1.6-2.2,2.1-2.9c-2.5-0.3-5.1-0.8-7.6-0.6l2-2l-1.5-0.3c-0.2-1.6-0.4-3.2-1.1-4.6c0.7-0.7,2.2-2.2,2.9-3l-3.4,1.3v-1.7
			l1.4,0.4c-0.1-3.9,2.3-9.1-3.1-10.5c0.7,0,2.1-0.1,2.7-0.2c-2.1-1.5-3.7-3.5-5.5-5.2c5.5,10.9-0.6-1.6-3.5,2.4
			c-1.5-0.9-3-0.6-4.5-0.1c0.3-0.7,1.1-2,1.4-2.6c-3.6,2.5-8.1-0.1-11.6,2.5c2.1-0.3,4.2-0.8,6.3-0.5c-1.3,1.5-2.8,2.8-4.1,4.3
			c1,1.7,2.2,3.2,3.2,4.9c-1.4-0.2-3.3-1.9-4.1,0.1c0.2,2.7,4.8,4.5,2.1,7.3c-0.6,0.3-1.8,1-2.4,1.3c0.9,2.3,2.2,4.4,3.6,6.5
			c-1.7,2.8-5.3-1.3-6,2.1c-2.9-0.5-5.9-0.9-8.8-1.4c-0.2,0.7-0.7,2.2-0.9,2.9c-0.4-0.4-1.3-1.2-1.8-1.6c-0.4,0.6-1.1,1.7-1.5,2.3
			c-0.3-1.1-1-3.3-1.3-4.4c-0.3,1.3-0.6,2.7-0.9,4c-0.6-0.2-1.9-0.5-2.5-0.7c0.2-0.5,0.7-1.4,1-1.9c-1.3,0.4-3.9,1.1-5.2,1.4
			l3.1-2.3l-1.2-2c-5.4,9,0.6-1.7-3.7-3.2c-0.8-1.8,0.5-3.3,2.4-2.5c-1-2.3-3-4-5.3-4.9l2-1.5l-4.1-0.2c0,0.7-0.1,2.2-0.1,2.9
			c-0.2-0.9-0.6-2.7-0.8-3.6c-0.7,0.5-2,1.5-2.7,2c-0.8-0.3-2.5-1-3.3-1.3v2.3c-2-0.5-4-1.3-6-0.5l1.6-3.4c-1,1-3,2.9-3.9,3.9
			l-0.6-1.4c-0.6,0.4-1.9,1.3-2.5,1.7l2.1-3.8c-1.2,1-3.5,2.9-4.7,3.9c-0.1-0.8-0.3-2.4-0.3-3.2c-1.1,0.7-2.2,1.5-3.4,2.2l2.6,0.2
			c-2.9,2.3-0.8,6.2-4.4,7.7c0-1.1,0-3.3,0-4.4c-0.5,3.1-1.1,6.2-1.8,9.3c-0.6,0-1.8-0.1-2.4-0.1c0.3,0.3,1,1,1.3,1.3v1
			c-2.1-0.2-4.1-0.2-6.2,0.1c-0.8,0.1-2.4,0.2-3.2,0.3l2.4-1.6c-2.3,0.4-4.2-0.2-5.8-1.7l2.6,1c1.4-2.8,3.3-5.2,5.2-7.6l-3.3,1.9
			c0.7-2,1.4-4.1,2.1-6.1c0.3,0.1,1,0.2,1.3,0.3c-0.1-0.9-0.3-2.8-0.3-3.8c1.2-0.3,2.3-0.7,3.4-1.1c-0.3-0.8-1-2.5-1.4-3.3
			c1.6-1.3,3.1-2.7,4.6-4.1c-1-0.1-2.9-0.3-3.9-0.5c1-0.7,2.9-2.1,3.9-2.7c0.1,0.7,0.2,2.1,0.2,2.8c0.3-0.6,0.9-1.8,1.2-2.4
			c-1.1-0.9-2.2-1.7-3.3-2.5c0.4-0.1,1.2-0.4,1.5-0.5c-0.2-2.7,2.6-3.3,4.5-4.2c-0.2-0.3-0.5-1-0.7-1.3c0.5-1,1.4-2.9,1.9-3.9
			c-0.4-0.4-1.3-1.2-1.8-1.6c1.1-1.3,3.4-2.1,2.5-4.4l3.3,0.9c-1-0.8-2.9-2.5-3.9-3.3c1-0.1,2.9-0.1,3.9-0.2c-2.8-1.5-1-5.2,1.7-5.4
			l-1.8-3c1,0.6,2.9,1.9,3.9,2.5c-0.3-0.8-0.9-2.3-1.2-3.1c2-1.4,4.2-2.6,6.8-2.3c0.9-0.6,1.9-1.1,2.8-1.7l-0.6-1.1l1.5-0.1
			l-1.4,3.1l2.8-1.5c0.6,1.7,1.4,3.3,0.6,5.1c0.8,0.5,2.4,1.4,3.2,1.9c-0.7,0.9-1.4,1.8-2.1,2.7c0.7-0.1,2.1-0.2,2.9-0.3
			c-3.5,2.1,1.2,7.8,3.6,4.4c-0.2,1.7-2,3.5-0.4,5.2c-0.4,0.8-0.7,1.6-1.1,2.3c0.6,0,1.6-0.1,2.2-0.2c0.5,2.2,1.2,4.3,1.8,6.4
			c1.8,1.2,2.5,3.1,2.7,5.1c1.7,1.3,2.3,3.3,3.3,5.1c-0.3,0.9-1,2.7-1.3,3.6l3.1-2.1c-3.6,3.5,4.5,5.2,0.9,8.4c1,1,2,2.1,3,3.1
			c-0.8,0.4-2.5,1.2-3.3,1.6c1,0.1,2.9,0.2,3.9,0.2c0.4,2.3,1.4,4.5,2.6,6.5c2.5-1.8,2.3-3.3-0.5-4.5c-0.5-3,0.5-5.5,3-7.3l-3.9,1.8
			c1.4-1.6,2.8-3.2,4.2-4.8c-0.5-0.1-1.5-0.4-1.9-0.5c-0.5-1-1.5-3-2-4l2.3,0.5c-1.2-1.3-2.5-3.2,0-3.9c-0.7-1.4-1.3-2.9-2-4.3
			l2.8,0.1c-2.8-2.2-2.3-4.9-0.6-7.5c-0.5-0.4-1.4-1.3-1.9-1.8c2.6-1.5,3-3.2,1.1-5.1c-0.2-0.5-0.7-1.4-1-1.9
			c0.7-0.9,2.1-2.8,2.8-3.7l-3.3,1.9l0.1-0.9c0.9-0.9,2.6-2.6,3.4-3.5l-3.5,1.6c0-2.5,0.1-4.9,0.3-7.4c0-1.9,0.7-3.7,1.2-5.6
			C107.6,256.5,109.1,257.1,109.8,257.3z M106.5,267.9c2-1,1.7-4.5,1.6-6.5C105.9,261.9,105.4,266.1,106.5,267.9z M125.9,268.4
			l-0.2-3.3c-2.1,0.5-4.6,2.2-6.3-0.1c-1,1-2,1.9-3.2,2.7l-0.1,2.4l2.2-1.6c0.5,1.7,1,3.3,1.4,5c-0.8-1.1-1.7-2.2-2.5-3.4
			c-0.2,0.9-0.6,2.6-0.8,3.4c0.1,1.1,0.2,2.2,0.3,3.3c1.2,0.9,2.3,1.8,3.5,2.7l-2.4-0.3c-0.2,1.1-0.7,3.4-0.9,4.5
			c2-1.3,4-2.4,6.1-3.6c-5.2,7.5,1.4,1.1,3.7,0l-0.7,3.6c0.9-0.8,2.6-2.3,3.5-3.1c0.2,0.5,0.7,1.5,0.9,2c1.2-1,2.3-1.9,3.5-2.8
			c1.7,0,3.1-0.6,4.4-1.7l1.6,1.4c-0.9-2.4-1.9-4.8-2.8-7.3c5.9,9.1,3.3-2.6-0.9-2.2c0.1-0.8,0.4-2.3,0.6-3.1
			c-1-0.2-2.1-0.3-3.1-0.5l-0.2,2.5c-1.4-1.5-2.6-3.2-4.1-4.6C127.6,264.6,127.2,267.6,125.9,268.4z M73,271.3
			c0.2,2.2,0.5,4.3,0.9,6.5l-2.4-1.6c-0.4,1.1,2.4,6.5-0.8,5.6c-0.2-0.9-0.6-2.7-0.8-3.6c-0.1,1.7,0.4,3.6-1.1,4.9
			c0.4,0.1,1.1,0.3,1.5,0.4c-1.8,1.5-1,4.3-3,5.5c0.2,0.5,0.6,1.4,0.8,1.8c-1,0.8-2.1,1.6-3.1,2.4c0.9-0.2,2.6-0.7,3.5-1
			c-0.5,0.9-1.5,2.6-2,3.5l4.6-0.1l-2.6-1.8c2.3,0.5,4.7,0.4,6.9,1.4c0.3-0.4,0.9-1.1,1.3-1.4c0.1,0.6,0.2,1.8,0.2,2.4
			c2.2-0.2,4.5-1.7,6.5-0.3l-0.1-3.9c0.7,1.2,1.5,2.4,2.2,3.6c1-3.2-2.1-4.1-4-5.6c3.6-3.9-0.7-3.3-3.2-4c0.6-0.5,1.8-1.4,2.5-1.9
			c-1-0.5-3.1-1.6-4.1-2.1c1-0.6,2.9-1.7,3.9-2.2l-3.7,0.9l1-1.8c-0.5-1.4-1-2.8-1.3-4.2C75.6,273.8,73.8,272.2,73,271.3z"/>
	</g>
	<path d="M160,255.4c0.8,0,2.4,0,3.2-0.1C164.4,257.7,157.8,258,160,255.4z"/>
	<g>
		<path d="M194.2,258.5c1.3-1.3,2.5-2.6,3.8-3.8l0.7,2.7c1-0.7,2.1-1.5,3.3-2.1c1,1,1.9,2.1,2.9,3.1c0.6-0.6,1.7-1.7,2.2-2.3
			c-0.2,1.3-0.5,3.9-0.7,5.2l2-1.5c-0.1,1.3-0.3,3.8-0.4,5c0.7-0.1,2.2-0.3,3-0.3c-0.6,0.7-1.2,1.3-1.8,2c0.1,0.5,0.4,1.6,0.6,2.1
			l0.7-0.7c0.7,1.5,1.9,2.6,3.5,3.3c-0.7,0.2-1.5,0.5-2.2,0.8c1.7,1.1,4.4,3,1.8,4.8c0.9,1,1.9,1.9,2.8,2.8c-1.8,2-0.9,7.7,2.5,5.3
			c0.4,0.4,1.1,1.1,1.5,1.5c-0.8,0-2.5,0.1-3.4,0.1c0.4,0.7,1.1,2.1,1.4,2.8l1.9-0.3c-0.3,0.8-0.8,2.4-1,3.2
			c1.1,0.4,3.3,1.3,4.4,1.7c-1.1,0.6-2.3,1-3.4,1.5c1.2,0.5,3.5,1.4,4.7,1.9l-3.9,1.1c1.2,1.2,2.3,2.6,4,2.7
			c0.3,2.1,3.4,4.5,0.7,6.2c0.9,2.8,2.1,5.5,5,6.7c-0.9,0.3-2.6,0.9-3.5,1.2c1,0,3.1,0,4.1-0.1c-1,1.4-2,2.8-2.9,4.3
			c-0.1-3.4-2.9-3.4-4,0.1c-0.2-0.5-0.7-1.4-0.9-1.8c-2.9,2.1-4.1-3.1-7.3-2.6c0.3-0.5,1-1.4,1.3-1.9c-0.7-0.3-2.2-0.8-2.9-1.1
			c0.8-0.6,2.5-1.9,3.3-2.5c-0.6,0.2-1.9,0.6-2.6,0.8l1.4-3l-3.2,2.4c0.3-1,1.1-2.9,1.4-3.8l-2.6-0.7l2-2.3c-2.5-2.2-5.4,0.3-7.9,1
			l2.8-3.3c-2.6,0.5-5.4,0.9-7.6,2.5l0.8-2.1l-1.5,0.3l0.9,2.8c-0.8-0.3-2.3-1.1-3.1-1.4c-1.5,0.3-2.9,0.7-4.4,1.1l0.1-1.3l3-0.6
			c-2.5-2.4-4.4,0.8-6.2,2.2l0.3-2.7l-1.9-0.6c0.2,0.9,0.7,2.7,0.9,3.6c-0.7-0.6-2-1.9-2.7-2.6c-0.6,1.5-1.1,3-1.6,4.6l-3.1-0.1
			c0.7,0.4,2.2,1.3,2.9,1.7c-0.5,1.4-0.9,2.8-1.3,4.2c-1.1,1.8-2.1,3.6-3,5.5c-2.1,0.1-4.3,0.3-6.4,0.6c-0.6-0.4-1.8-1.3-2.4-1.7
			l0.4,2.6c-0.4,0-1.1,0-1.5,0c0.5-2.4-1.7-3.8-3-5.4c0.9,0.2,2.6,0.7,3.4,0.9c-0.2-1-0.5-2.9-0.7-3.9l-2.8,1.8
			c-0.1-1.3-0.1-2.5-0.1-3.8c-2.9,1.4,0,6.1-0.5,8.8c-2,2.4-5.2-1.2-7.3,1.4c-1.3-1.2-2.6-2.4-4.2-3.1l-0.1-0.9
			c1,0.2,2.9,0.5,3.8,0.7l-2.7-2.4c0.5-0.5,1.4-1.5,1.9-2.1c-0.9-0.1-2.8-0.3-3.8-0.4c1.5-1.6,3.5-2.6,5.2-3.8c-4.5,2.9-2.9-2.4-2-4
			c1.2-1.2-0.9-2.1-1.3-3.1c1.6-0.5,3.1-1.1,4.6-1.7l-3.3,1l0.9-4c-0.7,1.1-1.4,2.2-2.1,3.3c0-2.5-2.3-5.5-0.3-7.9
			c0,1-0.1,3-0.1,3.9h1.3c0.3-1.1,0.6-2.1,0.9-3.2c-0.6-0.5-1.7-1.6-2.3-2.1c0.9-0.3,2.5-1.1,3.4-1.4c-0.7,0-2.2-0.1-2.9-0.1
			c0.1-0.6,0.4-1.9,0.5-2.5c-0.5-0.6-1.6-1.9-2.1-2.6l2.8,0.1c-0.1-1.7-0.2-3.3-0.2-5c-0.5,0.1-1.4,0.4-1.9,0.5l-0.1-2.3
			c0.7,0,2.2,0.1,2.9,0.2c-1.4-1.8-2.6-3.8-3.6-5.8c0.9,0.5,2.7,1.4,3.6,1.9c-1-1.7-2.1-3.3-3.1-5.1c0.9-0.1,2.6-0.2,3.4-0.3
			c-1.4-0.6-2.7-1.3-4-2c0.8-0.3,2.5-0.8,3.3-1.1c-3.7-0.9-2.3-4.1-0.7-6.3c3-0.7,6.1-0.9,9.2-1c0.8,3.4,2,6.8,2.2,10.4
			c-1.2,1.7-2.3,3.5-2.9,5.5c1.2-1.1,2.5-2.3,3.7-3.4l-0.5,3.2l-2.3,0.7c0.6,0.3,1.8,0.9,2.4,1.3l-1.6,1.2c-0.1,1-0.3,3.1-0.4,4.1
			l2.5-2.4c-0.6,2.4-0.9,5-2.6,7l2.4,0.3c-0.9,0.8-2.6,2.3-3.5,3.1c1.1-0.2,2.2-0.3,3.3-0.2c0.6,1.7-2.7,3.6,0.5,4.8
			c-0.5,0.6-1.4,1.7-1.9,2.3c-0.1,0.5-0.3,1.6-0.4,2.1l2.5,0.3c-0.7,0.5-2.1,1.5-2.8,2c0,2.6,0.2,5.3,2.2,7.3l-1.6,0.8
			c1.2,2,2.6,3.9,4.7,5c-0.4-1-1.2-3-1.6-4c0.8-0.2,2.4-0.6,3.1-0.8l-2.1-0.9l0.1-1l3.3,1.5c-0.9-1.1-2.6-3.2-3.4-4.2
			c0.7,0,2.1,0,2.8,0v-2.2c0.7,0.2,2,0.6,2.6,0.8c-0.7-1-2.2-2.9-2.9-3.9l3.4,1.6c-0.7-1.5-1.5-2.9-2.2-4.4c0.6,0.4,1.7,1.2,2.2,1.6
			c0.6-1.2,1.9-3.4,2.6-4.6l-4.2,3.1c0.8-2.1,2.6-3.4,4.3-4.7c-0.4-0.5-1.2-1.4-1.6-1.9c0.8-0.3,2.4-0.8,3.2-1.1
			c-0.5-0.5-1.5-1.4-2-1.9c0.8-0.1,2.4-0.2,3.1-0.2c-0.2-0.5-0.7-1.5-0.9-2c0.8-1.3,1.7-2.6,2.5-3.9c-0.4-0.8-1.2-2.5-1.6-3.3
			c1.4,0.7,2.7,1.4,4.1,2.1c-1.4-2.6-2.7-5.6,1-7.1c-0.5-0.1-1.5-0.4-2-0.6c0.5-0.6,1.6-1.7,2.2-2.3l1.6,1.8c1.2-2.2,0.4-4.7,0.1-7
			c0.6,0.1,1.8,0.4,2.4,0.5c-0.3-0.7-0.9-2-1.3-2.7c1.5-0.7,3-1.4,4.5-2.1C196.8,258.4,195,258.4,194.2,258.5z M198.5,270.5l2.8,3.5
			l-3.2-1.7c0.1,1.9-0.5,3.7-1.6,5.3c0.6-0.5,1.9-1.5,2.6-1.9l1.3,0.6c-1.3,1.1-2.7,1.6-4.4,1.5l1.7,1.7c-0.7,0.1-2.2,0.3-2.9,0.4
			c0.4,0.6,1.2,1.7,1.7,2.2c-5.5,0.3,1.9,7.2-4.5,4.9c0.9,1.4,1.7,2.7,2.6,4l-3.6-1.9c0.6,1.7,1.2,3.5,1.8,5.2l-2.7,0.2
			c2.5,2.4,3.6-0.9,5.1-2.2l-0.3,2.8c0.7,0,2.2,0.1,2.9,0.2c-0.2-0.8-0.6-2.4-0.8-3.1c1.1,0.8,3.3,2.4,4.4,3.2l-0.9-3.1
			c0.8,0.4,2.3,1.3,3,1.7l0.2-1.6c1.6,1,3.3,1.8,5,2.6c0.6-0.6,1.3-1.2,1.9-1.9c-0.5-1.6-1-3.2-1.5-4.7c0.2,1.1,0.5,3.3,0.6,4.4
			h-1.9c-0.2-1.6-0.3-3.3-0.4-4.9c-2-1.9-1.7-4.7-1.7-7.2c-0.4,0.1-1.2,0.3-1.5,0.4c-0.4-1.8-0.9-3.5-1.6-5.2
			c0.2-0.6,0.4-1.2,0.6-1.9c-0.6-0.3-1.9-1-2.5-1.3c0.3-0.5,1-1.4,1.4-1.9C201.1,270.8,199.3,270.6,198.5,270.5z"/>
	</g>
	
		<rect x="461.2" y="255.4" transform="matrix(9.480866e-02 -0.9955 0.9955 9.480866e-02 163.1683 691.0018)" width="0.8" height="0.8"/>
	<path d="M68.1,259.9c-0.1-1.7,0.8-2.4,2.7-2.1C70.9,259.5,70,260.2,68.1,259.9z"/>
	<path d="M569.4,262.2c2.7-1.6,1.2,3.7-0.4,1.2L569.4,262.2z"/>
	<path d="M716.5,267.1c1.8-0.4,2.5,0.2,2.2,2C716.8,269.5,716,268.8,716.5,267.1z"/>
	<path d="M445.7,272.5c-0.7-1.4,1-3.7,2.6-3.2C449.2,270.7,447.2,272.9,445.7,272.5z"/>
	<polygon points="316.3,274.3 317.1,274.3 317.1,275.1 316.3,275.1 	"/>
	<polygon points="736.4,274.6 737.2,274.6 737.2,275.4 736.4,275.4 	"/>
	<rect x="157.3" y="279.7" width="0.8" height="0.8"/>
	
		<rect x="595.5" y="279.9" transform="matrix(3.123513e-02 -0.9995 0.9995 3.123513e-02 297.1335 867.0708)" width="0.8" height="0.8"/>
	<polygon points="484.6,301.7 485.4,301.7 485.4,302.5 484.6,302.5 	"/>
	<polygon points="446.8,302.6 447.6,302.6 447.6,303.5 446.8,303.5 	"/>
	<polygon points="448.2,305.5 449,305.5 449,306.3 448.2,306.3 	"/>
	<polygon points="118.3,310.4 119.1,310.4 119.2,311.2 118.4,311.2 	"/>
	<path d="M297.3,314.4c1.6,0.7,1.5,1.6-0.5,2.5C295.2,316.2,295.3,315.4,297.3,314.4z"/>
	<rect x="153.2" y="316.2" width="0.8" height="0.8"/>
	<polygon points="335.6,317.2 336.4,317.2 336.4,318 335.6,318 	"/>
	<polygon points="141.8,318.3 142.6,318.4 142.6,319.2 141.7,319.2 	"/>
</g>
</svg>
